<?xml version="1.0" encoding="UTF-8" standalone="no"?>
<!DOCTYPE svg PUBLIC "-//W3C//DTD SVG 1.1//EN" "http://www.w3.org/Graphics/SVG/1.1/DTD/svg11.dtd">
<svg width="100%" height="100%" viewBox="0 0 1370 301" version="1.1" xmlns="http://www.w3.org/2000/svg" xmlns:xlink="http://www.w3.org/1999/xlink" xml:space="preserve" xmlns:serif="http://www.serif.com/" style="fill-rule:evenodd;clip-rule:evenodd;stroke-linejoin:round;stroke-miterlimit:1.41421;">
    <g transform="matrix(1,0,0,1,-550,-2933)">
        <g id="woowaccess-logo-1" serif:id="woowaccess logo 1" transform="matrix(0.552349,0,0,0.0855219,550,2933.3)">
            <rect x="0" y="0" width="2480.32" height="3507.87" style="fill:none;"/>
            <clipPath id="_clip1">
                <rect x="0" y="0" width="2480.32" height="3507.87"/>
            </clipPath>
            <g clip-path="url(#_clip1)">
                <g transform="matrix(0.79781,0,0,5.15271,-2563.87,-25287.7)">
                    <g id="woowtime" transform="matrix(1.68366,0,0,1.68366,3445.98,5250.3)">
                        <g transform="matrix(1,0,0,1,-138,-170.5)">
                            <g transform="matrix(3.97242,0,0,3.97242,-44580.3,-64075.5)">
                                <path d="M11239.9,16215.8L11233.3,16215.8L11223.4,16180.2L11228.9,16174.8L11236.7,16202.9L11247.2,16163.7L11253.9,16163.7L11263.3,16198.7L11270,16173.7L11275.6,16178.3L11266.8,16211.9L11260.2,16211.9L11250.6,16176.2L11239.9,16215.8ZM11277.4,16145.4L11281.5,16130.1L11286.8,16135.1L11282.9,16150.2C11288.5,16156.4 11291.9,16164.6 11291.9,16173.6C11291.9,16186.9 11284.3,16198.5 11273.3,16204.3L11274.6,16197C11281.7,16191.6 11286.3,16183.1 11286.3,16173.6C11286.3,16167.4 11284.4,16161.7 11281.1,16156.9L11276.9,16173.3L11271.2,16168.7L11275.9,16151.2L11277.4,16145.4ZM11273.3,16149.3C11268.7,16146.2 11263.2,16144.4 11257.2,16144.4C11242.8,16144.4 11230.9,16154.8 11228.5,16168.5L11222.5,16173.9C11222.5,16173.8 11222.5,16173.7 11222.5,16173.6C11222.5,16154.4 11238,16138.9 11257.2,16138.9C11263.6,16138.9 11269.7,16140.6 11274.8,16143.7L11273.3,16149.3Z" style="fill:url(#_Linear2);"/>
                            </g>
                        </g>
                    </g>
                    <g transform="matrix(6.68234,0,0,6.68234,1442.5,-30321.6)">
                        <path d="M369.894,5340.42L378.593,5340.42L386.892,5317.38L395.241,5340.42L403.94,5340.42L416.539,5305.43L407.89,5305.43L399.591,5328.42L391.242,5305.43L382.593,5305.43L374.244,5328.42L365.944,5305.43L357.295,5305.43L369.894,5340.42Z" style="fill:url(#_Linear3);fill-rule:nonzero;"/>
                        <path d="M431.342,5340.97C439.743,5340.97 444.939,5335.18 444.939,5327.93C444.939,5320.62 439.793,5314.83 431.342,5314.83C422.891,5314.83 417.745,5320.62 417.745,5327.93C417.745,5335.23 422.891,5340.97 431.342,5340.97ZM431.292,5321.17C434.644,5321.17 436.895,5324.22 436.895,5327.93C436.895,5331.58 434.594,5334.63 431.292,5334.63C428.04,5334.63 425.739,5331.58 425.739,5327.93C425.739,5324.22 427.99,5321.17 431.292,5321.17Z" style="fill:url(#_Linear4);fill-rule:nonzero;"/>
                        <path d="M462.742,5340.97C471.143,5340.97 476.339,5335.18 476.339,5327.93C476.339,5320.62 471.193,5314.83 462.742,5314.83C454.291,5314.83 449.145,5320.62 449.145,5327.93C449.145,5335.23 454.291,5340.97 462.742,5340.97ZM462.692,5321.17C466.044,5321.17 468.295,5324.22 468.295,5327.93C468.295,5331.58 465.994,5334.63 462.692,5334.63C459.44,5334.63 457.139,5331.58 457.139,5327.93C457.139,5324.22 459.39,5321.17 462.692,5321.17Z" style="fill:url(#_Linear5);fill-rule:nonzero;"/>
                        <path d="M492.594,5340.42L501.293,5340.42L509.592,5317.38L517.941,5340.42L526.64,5340.42L539.239,5305.43L530.59,5305.43L522.291,5328.42L513.942,5305.43L505.293,5305.43L496.944,5328.42L488.644,5305.43L479.995,5305.43L492.594,5340.42Z" style="fill:url(#_Linear6);fill-rule:nonzero;"/>
                        <path d="M554.495,5340.42L563.344,5340.42L566.244,5333.97L583.441,5333.97L586.34,5340.42L595.139,5340.42L579.242,5305.43L570.443,5305.43L554.495,5340.42ZM574.842,5314.98L580.441,5327.28L569.243,5327.28L574.842,5314.98Z" style="fill:url(#_Linear7);fill-rule:nonzero;"/>
                        <path d="M596.695,5327.98C596.695,5335.23 602.091,5341.12 610.139,5341.12C616.089,5341.12 619.939,5337.78 621.589,5335.48L616.939,5331.48C615.839,5333.18 614.039,5334.63 611.339,5334.63C607.539,5334.63 604.689,5331.78 604.689,5327.88C604.689,5324.07 607.639,5321.17 611.239,5321.17C613.889,5321.17 615.789,5322.47 617.039,5324.32L621.539,5320.52C619.739,5317.73 615.789,5314.78 610.139,5314.78C601.991,5314.78 596.695,5320.72 596.695,5327.98Z" style="fill:url(#_Linear8);fill-rule:nonzero;"/>
                        <path d="M624.595,5327.98C624.595,5335.23 629.991,5341.12 638.039,5341.12C643.989,5341.12 647.839,5337.78 649.489,5335.48L644.839,5331.48C643.739,5333.18 641.939,5334.63 639.239,5334.63C635.439,5334.63 632.589,5331.78 632.589,5327.88C632.589,5324.07 635.539,5321.17 639.139,5321.17C641.789,5321.17 643.689,5322.47 644.939,5324.32L649.439,5320.52C647.639,5317.73 643.689,5314.78 638.039,5314.78C629.891,5314.78 624.595,5320.72 624.595,5327.98Z" style="fill:url(#_Linear9);fill-rule:nonzero;"/>
                        <path d="M653.295,5327.92C653.295,5335.23 658.791,5341.02 666.842,5341.02C672.795,5341.02 676.842,5338.07 678.59,5335.13L673.794,5331.77C672.195,5334.08 670.094,5334.98 667.493,5334.98C664.341,5334.98 661.839,5332.82 661.389,5329.32L679.789,5329.32C680.189,5321.37 675.64,5314.83 666.692,5314.83C658.194,5314.83 653.295,5320.62 653.295,5327.92ZM661.643,5324.88C662.393,5322.12 664.493,5320.52 667.342,5320.52C670.194,5320.52 672.395,5322.42 672.595,5324.88L661.643,5324.88Z" style="fill:url(#_Linear10);fill-rule:nonzero;"/>
                        <path d="M683.395,5338.07C684.595,5338.92 687.442,5341.02 694.092,5341.02C700.843,5341.02 705.389,5338.13 705.389,5333.28C705.389,5325.22 691.689,5325.52 691.689,5322.27C691.689,5320.82 693.691,5320.52 694.993,5320.52C697.595,5320.52 699.993,5321.27 701.592,5322.32L704.29,5317.23C703.241,5316.63 700.393,5314.83 694.692,5314.83C688.092,5314.83 683.845,5317.68 683.845,5322.42C683.845,5330.48 697.395,5329.78 697.395,5333.33C697.395,5334.48 695.894,5335.28 694.142,5335.28C690.69,5335.28 687.842,5334.38 686.443,5333.23L683.395,5338.07Z" style="fill:url(#_Linear11);fill-rule:nonzero;"/>
                        <path d="M708.295,5338.07C709.495,5338.92 712.342,5341.02 718.992,5341.02C725.743,5341.02 730.289,5338.13 730.289,5333.28C730.289,5325.22 716.589,5325.52 716.589,5322.27C716.589,5320.82 718.591,5320.52 719.893,5320.52C722.495,5320.52 724.893,5321.27 726.492,5322.32L729.19,5317.23C728.141,5316.63 725.293,5314.83 719.592,5314.83C712.992,5314.83 708.745,5317.68 708.745,5322.42C708.745,5330.48 722.295,5329.78 722.295,5333.33C722.295,5334.48 720.794,5335.28 719.042,5335.28C715.59,5335.28 712.742,5334.38 711.343,5333.23L708.295,5338.07Z" style="fill:url(#_Linear12);fill-rule:nonzero;"/>
                    </g>
                </g>
            </g>
        </g>
    </g>
    <defs>
        <linearGradient id="_Linear2" x1="0" y1="0" x2="1" y2="0" gradientUnits="userSpaceOnUse" gradientTransform="matrix(32.9682,-56.0304,56.0304,32.9682,11247.7,16199.5)"><stop offset="0" style="stop-color:rgb(0,161,233);stop-opacity:1"/><stop offset="1" style="stop-color:rgb(33,73,161);stop-opacity:1"/></linearGradient>
        <linearGradient id="_Linear3" x1="0" y1="0" x2="1" y2="0" gradientUnits="userSpaceOnUse" gradientTransform="matrix(2.01593e-15,-32.9226,32.9226,2.01593e-15,505.736,5332.66)"><stop offset="0" style="stop-color:rgb(1,160,232);stop-opacity:1"/><stop offset="1" style="stop-color:rgb(33,73,161);stop-opacity:1"/></linearGradient>
        <linearGradient id="_Linear4" x1="0" y1="0" x2="1" y2="0" gradientUnits="userSpaceOnUse" gradientTransform="matrix(2.01593e-15,-32.9226,32.9226,2.01593e-15,505.736,5332.66)"><stop offset="0" style="stop-color:rgb(1,160,232);stop-opacity:1"/><stop offset="1" style="stop-color:rgb(33,73,161);stop-opacity:1"/></linearGradient>
        <linearGradient id="_Linear5" x1="0" y1="0" x2="1" y2="0" gradientUnits="userSpaceOnUse" gradientTransform="matrix(2.01593e-15,-32.9226,32.9226,2.01593e-15,505.736,5332.66)"><stop offset="0" style="stop-color:rgb(1,160,232);stop-opacity:1"/><stop offset="1" style="stop-color:rgb(33,73,161);stop-opacity:1"/></linearGradient>
        <linearGradient id="_Linear6" x1="0" y1="0" x2="1" y2="0" gradientUnits="userSpaceOnUse" gradientTransform="matrix(2.01593e-15,-32.9226,32.9226,2.01593e-15,505.736,5332.66)"><stop offset="0" style="stop-color:rgb(1,160,232);stop-opacity:1"/><stop offset="1" style="stop-color:rgb(33,73,161);stop-opacity:1"/></linearGradient>
        <linearGradient id="_Linear7" x1="0" y1="0" x2="1" y2="0" gradientUnits="userSpaceOnUse" gradientTransform="matrix(2.01593e-15,-32.9226,32.9226,2.01593e-15,505.736,5332.66)"><stop offset="0" style="stop-color:rgb(1,160,232);stop-opacity:1"/><stop offset="1" style="stop-color:rgb(33,73,161);stop-opacity:1"/></linearGradient>
        <linearGradient id="_Linear8" x1="0" y1="0" x2="1" y2="0" gradientUnits="userSpaceOnUse" gradientTransform="matrix(2.01593e-15,-32.9226,32.9226,2.01593e-15,505.736,5332.66)"><stop offset="0" style="stop-color:rgb(1,160,232);stop-opacity:1"/><stop offset="1" style="stop-color:rgb(33,73,161);stop-opacity:1"/></linearGradient>
        <linearGradient id="_Linear9" x1="0" y1="0" x2="1" y2="0" gradientUnits="userSpaceOnUse" gradientTransform="matrix(2.01593e-15,-32.9226,32.9226,2.01593e-15,505.736,5332.66)"><stop offset="0" style="stop-color:rgb(1,160,232);stop-opacity:1"/><stop offset="1" style="stop-color:rgb(33,73,161);stop-opacity:1"/></linearGradient>
        <linearGradient id="_Linear10" x1="0" y1="0" x2="1" y2="0" gradientUnits="userSpaceOnUse" gradientTransform="matrix(2.01593e-15,-32.9226,32.9226,2.01593e-15,505.736,5332.66)"><stop offset="0" style="stop-color:rgb(1,160,232);stop-opacity:1"/><stop offset="1" style="stop-color:rgb(33,73,161);stop-opacity:1"/></linearGradient>
        <linearGradient id="_Linear11" x1="0" y1="0" x2="1" y2="0" gradientUnits="userSpaceOnUse" gradientTransform="matrix(2.01593e-15,-32.9226,32.9226,2.01593e-15,505.736,5332.66)"><stop offset="0" style="stop-color:rgb(1,160,232);stop-opacity:1"/><stop offset="1" style="stop-color:rgb(33,73,161);stop-opacity:1"/></linearGradient>
        <linearGradient id="_Linear12" x1="0" y1="0" x2="1" y2="0" gradientUnits="userSpaceOnUse" gradientTransform="matrix(2.01593e-15,-32.9226,32.9226,2.01593e-15,505.736,5332.66)"><stop offset="0" style="stop-color:rgb(1,160,232);stop-opacity:1"/><stop offset="1" style="stop-color:rgb(33,73,161);stop-opacity:1"/></linearGradient>
    </defs>
</svg>
