<?xml version="1.0" encoding="UTF-8" standalone="no"?>
<svg
   xmlns:dc="http://purl.org/dc/elements/1.1/"
   xmlns:cc="http://creativecommons.org/ns#"
   xmlns:rdf="http://www.w3.org/1999/02/22-rdf-syntax-ns#"
   xmlns:svg="http://www.w3.org/2000/svg"
   xmlns="http://www.w3.org/2000/svg"
   id="svg4"
   version="1.1"
   viewBox="0 0 24 24"
   height="18"
   width="18">
  <metadata
     id="metadata10">
    <rdf:RDF>
      <cc:Work
         rdf:about="">
        <dc:format>image/svg+xml</dc:format>
        <dc:type
           rdf:resource="http://purl.org/dc/dcmitype/StillImage" />
        <dc:title></dc:title>
      </cc:Work>
    </rdf:RDF>
  </metadata>
  <defs
     id="defs8" />
  <path
     style="fill:#ffffff"
     id="path2"
     d="M18.618 7.462 6.403 2.085a1.007 1.007 0 0 0-.77-.016 1.002 1.002 0 0 0-.552.537l-3 7a1 1 0 0 0 .525 1.313L9.563 13.9 8.323 17H4v-3H2v8h2v-3h4.323c.823 0 1.552-.494 1.856-1.258l1.222-3.054 3.419 1.465a1 1 0 0 0 1.311-.518l3-6.857a1 1 0 0 0-.513-1.316zm1.312 8.91-1.858-.742 1.998-5 1.858.741z" />
</svg>
