<svg xmlns="http://www.w3.org/2000/svg" xmlns:xlink="http://www.w3.org/1999/xlink" viewBox="0 0 391.08 359.42"><defs><linearGradient id="linear-gradient" x1="430.31" y1="288.41" x2="449.18" y2="264.87" gradientUnits="userSpaceOnUse"><stop offset="0" stop-color="#2cc7b8"/><stop offset="1" stop-color="#a9ffb3"/></linearGradient><linearGradient id="linear-gradient-2" x1="405.59" y1="361.18" x2="428.85" y2="331.2" xlink:href="#linear-gradient"/><linearGradient id="linear-gradient-3" x1="406.54" y1="350.01" x2="445.49" y2="267.07" xlink:href="#linear-gradient"/><linearGradient id="linear-gradient-4" x1="-696.19" y1="350.01" x2="-657.24" y2="267.07" gradientTransform="matrix(-1, 0, 0, 1, -288.77, 0)" xlink:href="#linear-gradient"/><linearGradient id="linear-gradient-5" x1="343.35" y1="256.16" x2="373.62" y2="391.93" gradientUnits="userSpaceOnUse"><stop offset="0" stop-color="#e5ffff"/><stop offset="1" stop-color="#25dbff"/></linearGradient><linearGradient id="linear-gradient-6" x1="94.02" y1="345.64" x2="105.41" y2="331.43" xlink:href="#linear-gradient"/><linearGradient id="linear-gradient-7" x1="79.09" y1="389.57" x2="93.13" y2="371.47" xlink:href="#linear-gradient"/><linearGradient id="linear-gradient-8" x1="79.67" y1="382.83" x2="103.18" y2="332.75" xlink:href="#linear-gradient"/><linearGradient id="linear-gradient-9" x1="-368.97" y1="382.83" x2="-345.45" y2="332.75" gradientTransform="matrix(-1, 0, 0, 1, -288.77, 0)" xlink:href="#linear-gradient"/><linearGradient id="linear-gradient-10" x1="25.36" y1="291.24" x2="33.03" y2="325.64" xlink:href="#linear-gradient-5"/><linearGradient id="linear-gradient-11" x1="128.34" y1="244.42" x2="167.57" y2="421.52" gradientUnits="userSpaceOnUse"><stop offset="0" stop-color="#302a7b"/><stop offset="0.99" stop-color="#975189"/></linearGradient><linearGradient id="linear-gradient-12" x1="60.08" y1="219.79" x2="180.25" y2="411.73" gradientUnits="userSpaceOnUse"><stop offset="0" stop-color="#ffe099"/><stop offset="1" stop-color="#f34c70"/></linearGradient><linearGradient id="linear-gradient-13" x1="46.79" y1="167.04" x2="58.56" y2="260.78" xlink:href="#linear-gradient-12"/><linearGradient id="linear-gradient-14" x1="107.11" y1="159.47" x2="118.88" y2="253.21" xlink:href="#linear-gradient-12"/><linearGradient id="linear-gradient-15" x1="299.42" y1="149.82" x2="298.68" y2="203.62" gradientUnits="userSpaceOnUse"><stop offset="0" stop-color="#b3d3f1"/><stop offset="1" stop-color="#2c4cb6"/></linearGradient><linearGradient id="linear-gradient-16" x1="325.16" y1="150.18" x2="324.42" y2="203.98" xlink:href="#linear-gradient-15"/><linearGradient id="linear-gradient-17" x1="366.64" y1="238.45" x2="365.9" y2="292.26" xlink:href="#linear-gradient-15"/><linearGradient id="linear-gradient-18" x1="337.76" y1="350.35" x2="345.44" y2="423.32" gradientUnits="userSpaceOnUse"><stop offset="0" stop-color="#a2d6e2"/><stop offset="1" stop-color="#7b99cb"/></linearGradient><linearGradient id="linear-gradient-19" x1="383.27" y1="344" x2="389.81" y2="393.51" xlink:href="#linear-gradient-15"/><linearGradient id="linear-gradient-20" x1="305.77" y1="258.59" x2="312.31" y2="308.1" xlink:href="#linear-gradient-15"/><linearGradient id="linear-gradient-21" x1="289.15" y1="203.87" x2="358.09" y2="353.09" gradientUnits="userSpaceOnUse"><stop offset="0" stop-color="#b3d3f1"/><stop offset="1" stop-color="#5183e7"/></linearGradient><linearGradient id="linear-gradient-22" x1="301.27" y1="159.87" x2="313.46" y2="267.89" xlink:href="#linear-gradient-21"/><linearGradient id="linear-gradient-23" x1="347.41" y1="236.76" x2="366.33" y2="348.57" xlink:href="#linear-gradient-15"/><linearGradient id="linear-gradient-24" x1="192.45" y1="216.53" x2="279.17" y2="240.18" gradientUnits="userSpaceOnUse"><stop offset="0" stop-color="#ffb39f"/><stop offset="1" stop-color="#ffdec5"/></linearGradient><linearGradient id="linear-gradient-25" x1="266.97" y1="247.58" x2="285.82" y2="374.34" gradientUnits="userSpaceOnUse"><stop offset="0" stop-color="#4fb2c6"/><stop offset="1" stop-color="#02419c"/></linearGradient><linearGradient id="linear-gradient-26" x1="248.1" y1="171.56" x2="227.4" y2="424.34" xlink:href="#linear-gradient-25"/><linearGradient id="linear-gradient-27" x1="130.5" y1="116.7" x2="344.27" y2="387.11" xlink:href="#linear-gradient-25"/><linearGradient id="linear-gradient-28" x1="299.71" y1="217.9" x2="310.06" y2="370.16" xlink:href="#linear-gradient-12"/><linearGradient id="linear-gradient-29" x1="243.75" y1="221.7" x2="254.09" y2="373.96" xlink:href="#linear-gradient-12"/><linearGradient id="linear-gradient-30" x1="308.48" y1="241.41" x2="327.32" y2="368.17" xlink:href="#linear-gradient-25"/><linearGradient id="linear-gradient-31" x1="160.42" y1="482.86" x2="144.65" y2="113.27" gradientUnits="userSpaceOnUse"><stop offset="0" stop-color="#63b3bb"/><stop offset="1" stop-color="#c7ffe4"/></linearGradient><linearGradient id="linear-gradient-32" x1="164.98" y1="278.96" x2="184.04" y2="170.87" xlink:href="#linear-gradient-31"/><linearGradient id="linear-gradient-33" x1="122.26" y1="261.51" x2="139.34" y2="164.61" xlink:href="#linear-gradient-31"/><linearGradient id="linear-gradient-34" x1="235.25" y1="350.07" x2="239.44" y2="244.38" xlink:href="#linear-gradient-31"/><linearGradient id="linear-gradient-35" x1="373.86" y1="231.53" x2="253.75" y2="329.83" xlink:href="#linear-gradient-24"/><linearGradient id="linear-gradient-36" x1="133.31" y1="304.48" x2="186.77" y2="302.02" xlink:href="#linear-gradient-24"/><linearGradient id="linear-gradient-37" x1="266.44" y1="162.43" x2="275.43" y2="211.7" gradientUnits="userSpaceOnUse"><stop offset="0" stop-color="#5c4070"/><stop offset="1" stop-color="#391051"/></linearGradient><linearGradient id="linear-gradient-38" x1="273.48" y1="226.08" x2="301.82" y2="294.08" xlink:href="#linear-gradient-24"/><linearGradient id="linear-gradient-39" x1="277.71" y1="192.13" x2="269.9" y2="237.94" xlink:href="#linear-gradient-24"/><linearGradient id="linear-gradient-40" x1="211.03" y1="426.39" x2="252.43" y2="228.31" xlink:href="#linear-gradient-11"/><linearGradient id="linear-gradient-41" x1="-1520.07" y1="319.13" x2="-1555.39" y2="354.94" gradientTransform="matrix(-1, 0, 0, 1, -1352.13, -88.46)" xlink:href="#linear-gradient-11"/><linearGradient id="linear-gradient-42" x1="-1564.81" y1="241.03" x2="-1591.41" y2="323.08" gradientTransform="matrix(-1, 0, 0, 1, -1297.66, 0)" xlink:href="#linear-gradient-37"/><linearGradient id="linear-gradient-43" x1="361.78" y1="275.77" x2="200.16" y2="450.21" xlink:href="#linear-gradient-11"/><linearGradient id="linear-gradient-44" x1="234" y1="230.67" x2="198.69" y2="266.48" xlink:href="#linear-gradient-11"/><linearGradient id="linear-gradient-45" x1="243.73" y1="241.03" x2="217.12" y2="323.08" xlink:href="#linear-gradient-37"/><linearGradient id="linear-gradient-46" x1="162.81" y1="389.88" x2="168.48" y2="423.38" gradientTransform="translate(-53.46 -105.18) rotate(-11.1)" gradientUnits="userSpaceOnUse"><stop offset="0" stop-color="#ff487c"/><stop offset="1" stop-color="#ffadaa"/></linearGradient><linearGradient id="linear-gradient-47" x1="397.11" y1="223.31" x2="393.91" y2="126.24" xlink:href="#linear-gradient-5"/><linearGradient id="linear-gradient-48" x1="392.4" y1="181.68" x2="404.72" y2="291.57" gradientUnits="userSpaceOnUse"><stop offset="0" stop-color="#e5ffff"/><stop offset="1" stop-color="#5ec0ff"/></linearGradient><linearGradient id="linear-gradient-49" x1="386.73" y1="200.93" x2="386.73" y2="219.16" xlink:href="#linear-gradient-25"/><linearGradient id="linear-gradient-50" x1="332.27" y1="117.04" x2="332.27" y2="137.9" xlink:href="#linear-gradient-25"/><linearGradient id="linear-gradient-51" x1="332.27" y1="118.32" x2="332.27" y2="146.94" xlink:href="#linear-gradient-25"/><linearGradient id="linear-gradient-52" x1="332.27" y1="123.84" x2="332.27" y2="156.75" xlink:href="#linear-gradient-25"/><linearGradient id="linear-gradient-53" x1="386.74" y1="222.4" x2="386.74" y2="262.73" xlink:href="#linear-gradient-25"/><linearGradient id="linear-gradient-54" x1="407.49" y1="200.93" x2="407.49" y2="219.16" xlink:href="#linear-gradient-25"/><linearGradient id="linear-gradient-55" x1="353.03" y1="117.04" x2="353.03" y2="137.9" xlink:href="#linear-gradient-25"/><linearGradient id="linear-gradient-56" x1="353.03" y1="118.32" x2="353.03" y2="146.94" xlink:href="#linear-gradient-25"/><linearGradient id="linear-gradient-57" x1="353.03" y1="123.84" x2="353.03" y2="156.75" xlink:href="#linear-gradient-25"/><linearGradient id="linear-gradient-58" x1="407.49" y1="222.4" x2="407.49" y2="262.73" xlink:href="#linear-gradient-25"/><linearGradient id="linear-gradient-59" x1="376.73" y1="84.51" x2="382.4" y2="118.02" gradientTransform="matrix(0.91, 0.41, -0.41, 0.91, 121.9, -44.28)" xlink:href="#linear-gradient-46"/><linearGradient id="linear-gradient-60" x1="148.61" y1="135.25" x2="145.4" y2="38.18" xlink:href="#linear-gradient-5"/><linearGradient id="linear-gradient-61" x1="143.89" y1="93.63" x2="156.21" y2="203.51" xlink:href="#linear-gradient-48"/><linearGradient id="linear-gradient-62" x1="161.06" y1="127.56" x2="145.5" y2="167.12" xlink:href="#linear-gradient-37"/><linearGradient id="linear-gradient-63" x1="144.93" y1="154.71" x2="145.22" y2="155.02" xlink:href="#linear-gradient-37"/><linearGradient id="linear-gradient-64" x1="152.24" y1="154.8" x2="152.92" y2="155.53" xlink:href="#linear-gradient-37"/><linearGradient id="linear-gradient-65" x1="150.59" y1="172.42" x2="148.06" y2="129.99" xlink:href="#linear-gradient-11"/><linearGradient id="linear-gradient-66" x1="149.93" y1="172.35" x2="147.41" y2="130.13" xlink:href="#linear-gradient-11"/><linearGradient id="linear-gradient-67" x1="142.57" y1="92.05" x2="157.09" y2="157.17" xlink:href="#linear-gradient-37"/><linearGradient id="linear-gradient-68" x1="155.65" y1="149.25" x2="148.09" y2="121.99" xlink:href="#linear-gradient-11"/><linearGradient id="linear-gradient-69" x1="43.46" y1="653.81" x2="49.13" y2="687.32" gradientTransform="matrix(0.97, -0.24, 0.24, 0.97, -76.06, -532.4)" xlink:href="#linear-gradient-46"/><linearGradient id="linear-gradient-70" x1="340.98" y1="162.31" x2="389.39" y2="3.77" xlink:href="#linear-gradient-48"/><linearGradient id="linear-gradient-71" x1="352.29" y1="169.07" x2="349.09" y2="137.04" gradientUnits="userSpaceOnUse"><stop offset="0" stop-color="#2cedb8"/><stop offset="1" stop-color="#a9ffb3"/></linearGradient><linearGradient id="linear-gradient-72" x1="276.17" y1="76.85" x2="299.15" y2="1.58" gradientTransform="matrix(1, 0, 0, 1, 0, 0)" xlink:href="#linear-gradient-46"/><linearGradient id="linear-gradient-73" x1="283.38" y1="41.85" x2="288.33" y2="25.66" xlink:href="#linear-gradient-37"/><linearGradient id="linear-gradient-74" x1="337.47" y1="156.64" x2="340.18" y2="147.78" xlink:href="#linear-gradient-37"/><linearGradient id="linear-gradient-75" x1="288.31" y1="138.34" x2="280.59" y2="44.63" gradientTransform="matrix(1, 0, 0, 1, 0, 0)" xlink:href="#linear-gradient-46"/><linearGradient id="linear-gradient-76" x1="299.79" y1="76.86" x2="322.77" y2="1.57" gradientTransform="matrix(1, 0, 0, 1, 0, 0)" xlink:href="#linear-gradient-46"/><linearGradient id="linear-gradient-77" x1="307" y1="41.85" x2="311.94" y2="25.66" xlink:href="#linear-gradient-37"/><linearGradient id="linear-gradient-78" x1="361.06" y1="156.01" x2="365.64" y2="141.03" xlink:href="#linear-gradient-37"/><linearGradient id="linear-gradient-79" x1="311.93" y1="138.34" x2="304.21" y2="44.63" gradientTransform="matrix(1, 0, 0, 1, 0, 0)" xlink:href="#linear-gradient-46"/><linearGradient id="linear-gradient-80" x1="345.04" y1="140.88" x2="359.16" y2="94.65" gradientTransform="matrix(1, 0, 0, 1, 0, 0)" xlink:href="#linear-gradient-46"/><linearGradient id="linear-gradient-81" x1="367.31" y1="103.1" x2="405.86" y2="142.52" gradientTransform="matrix(1, 0, 0, 1, 0, 0)" xlink:href="#linear-gradient-46"/><linearGradient id="linear-gradient-82" x1="78.5" y1="193.7" x2="227.43" y2="426.89" xlink:href="#linear-gradient-5"/><linearGradient id="linear-gradient-83" x1="111.04" y1="234.65" x2="147.59" y2="278.49" xlink:href="#linear-gradient-12"/><linearGradient id="linear-gradient-84" x1="51.12" y1="135.2" x2="78.76" y2="187.3" xlink:href="#linear-gradient-12"/><linearGradient id="linear-gradient-85" x1="80.43" y1="235.76" x2="114.93" y2="277.14" xlink:href="#linear-gradient-12"/><linearGradient id="linear-gradient-86" x1="76.87" y1="228.35" x2="96.38" y2="265.13" xlink:href="#linear-gradient-12"/><linearGradient id="linear-gradient-87" x1="171.25" y1="234.88" x2="31.8" y2="270.36" xlink:href="#linear-gradient-12"/><linearGradient id="linear-gradient-88" x1="100.85" y1="245.08" x2="69.49" y2="286.62" xlink:href="#linear-gradient-12"/><linearGradient id="linear-gradient-89" x1="-1461.26" y1="190.02" x2="-1422.71" y2="229.44" gradientTransform="matrix(-1, 0, 0, 1, -1358.02, 0)" xlink:href="#linear-gradient-46"/></defs><title>grapich-travel</title><g style="isolation:isolate"><g id="OBJECTS"><path d="M445.54,390.49c0,6.9-87.55,57.39-195.54,57.39S54.46,397.39,54.46,390.49,142,378,250,378,445.54,383.6,445.54,390.49Z" transform="translate(-54.46 -88.46)" style="fill:#d4e6ff;opacity:0.45"/><path d="M365,389.38c0,4.05-51.49,33.75-115,33.75s-115-29.7-115-33.75S186.48,382,250,382,365,385.32,365,389.38Z" transform="translate(-54.46 -88.46)" style="fill:#bbd4f2;opacity:0.72"/><path d="M410.58,343.27l-.77-3.53a25.37,25.37,0,0,1,3.42-19.15h0A15.37,15.37,0,0,0,415.29,309l-5.54-25.22-5.16,29a86.15,86.15,0,0,0,.67,33.52h0" transform="translate(-54.46 -88.46)" style="fill:url(#linear-gradient)"/><path d="M410.65,358.28l1.15-2.86a21.76,21.76,0,0,1,11.67-11.89h0a13.11,13.11,0,0,0,7-7.17l8.27-20.5-17.63,18a73.66,73.66,0,0,0-15.71,24h0" transform="translate(-54.46 -88.46)" style="fill:url(#linear-gradient-2)"/><path d="M415,356.86v-5.44a38.35,38.35,0,0,1,11.23-27.11h0A23.14,23.14,0,0,0,433,308V269l-17,41a129.63,129.63,0,0,0-9.85,49.59h0" transform="translate(-54.46 -88.46)" style="fill:url(#linear-gradient-3)"/><path d="M399,356.86v-5.44a38.35,38.35,0,0,0-11.23-27.11h0A23.1,23.1,0,0,1,381,308V269l17,41a129.82,129.82,0,0,1,9.85,49.59h0" transform="translate(-54.46 -88.46)" style="fill:url(#linear-gradient-4)"/><rect x="331.62" y="260.94" width="34.94" height="41.88" style="fill:url(#linear-gradient-5)"/><path d="M82.1,378.76l-.46-2.13a15.36,15.36,0,0,1,2.06-11.56h0a9.27,9.27,0,0,0,1.25-7l-3.34-15.23-3.12,17.49a52,52,0,0,0,.4,20.23h0" transform="translate(-54.46 -88.46)" style="fill:url(#linear-gradient-6)"/><path d="M82.15,387.82l.69-1.73a13.16,13.16,0,0,1,7-7.17h0a7.91,7.91,0,0,0,4.25-4.33l5-12.38L88.48,373.06A44.65,44.65,0,0,0,79,387.56h0" transform="translate(-54.46 -88.46)" style="fill:url(#linear-gradient-7)"/><path d="M84.74,387v-3.28a23.17,23.17,0,0,1,6.78-16.37h0a13.94,13.94,0,0,0,4.09-9.87V333.93L85.37,358.68a78.24,78.24,0,0,0-6,29.94h0" transform="translate(-54.46 -88.46)" style="fill:url(#linear-gradient-8)"/><path d="M75.12,387v-3.28a23.17,23.17,0,0,0-6.78-16.37h0a13.94,13.94,0,0,1-4.09-9.87V333.93l10.24,24.75a78.24,78.24,0,0,1,6,29.94h0" transform="translate(-54.46 -88.46)" style="fill:url(#linear-gradient-9)"/><polygon points="32.33 302.82 19.63 302.82 15.43 294 36.53 294 32.33 302.82" style="fill:url(#linear-gradient-10)"/><path d="M157.4,333.78H131.65a7.54,7.54,0,0,1-7.53-7.53V308.68a7.54,7.54,0,0,1,7.53-7.53H157.4a7.53,7.53,0,0,1,7.52,7.53v17.57A7.53,7.53,0,0,1,157.4,333.78Zm-25.75-28.29a3.19,3.19,0,0,0-3.19,3.19v17.57a3.19,3.19,0,0,0,3.19,3.19H157.4a3.19,3.19,0,0,0,3.18-3.19V308.68a3.19,3.19,0,0,0-3.18-3.19Z" transform="translate(-54.46 -88.46)" style="fill:url(#linear-gradient-11)"/><rect x="31.3" y="229.01" width="117.52" height="77.32" rx="10.79" ry="10.79" style="fill:url(#linear-gradient-12)"/><rect x="54.66" y="229.01" width="9.53" height="77.32" style="fill:url(#linear-gradient-13)"/><rect x="52.7" y="260.94" width="13.46" height="13.46" rx="5.57" ry="5.57" style="fill:none;stroke:#fff;stroke-miterlimit:10;stroke-width:1.4474500000000001px"/><rect x="115.93" y="229.01" width="9.53" height="77.32" style="fill:url(#linear-gradient-14)"/><rect x="113.96" y="260.94" width="13.46" height="13.46" rx="5.57" ry="5.57" style="fill:none;stroke:#fff;stroke-miterlimit:10;stroke-width:1.4474500000000001px"/><rect x="296.86" y="180.26" width="3.94" height="24.85" style="fill:url(#linear-gradient-15)"/><rect x="322.6" y="180.26" width="3.94" height="24.85" style="fill:url(#linear-gradient-16)"/><path d="M383.9,270.63H348.55a1.91,1.91,0,0,1-1.91-1.91h0a1.91,1.91,0,0,1,1.91-1.92H383.9a1.92,1.92,0,0,1,1.91,1.92h0A1.92,1.92,0,0,1,383.9,270.63Z" transform="translate(-54.46 -88.46)" style="fill:url(#linear-gradient-17)"/><path d="M342.45,400.86h0a2.22,2.22,0,0,1-2.22-2.22v-7.39a2.21,2.21,0,0,1,2.22-2.22h0a2.22,2.22,0,0,1,2.22,2.22v7.39A2.23,2.23,0,0,1,342.45,400.86Z" transform="translate(-54.46 -88.46)" style="fill:url(#linear-gradient-18)"/><path d="M390,400.86h0a2.22,2.22,0,0,1-2.22-2.22v-7.39A2.21,2.21,0,0,1,390,389h0a2.22,2.22,0,0,1,2.22,2.22v7.39A2.23,2.23,0,0,1,390,400.86Z" transform="translate(-54.46 -88.46)" style="fill:url(#linear-gradient-19)"/><rect x="290.2" y="301.39" width="43.12" height="5.09" style="fill:url(#linear-gradient-20)"/><rect x="276.65" y="201.69" width="70.22" height="102.25" rx="5.07" ry="5.07" style="fill:url(#linear-gradient-21)"/><rect x="285.19" y="214.12" width="53.15" height="77.39" rx="3.84" ry="3.84" style="fill:url(#linear-gradient-22)"/><path d="M384.67,319.55H347.78a3,3,0,0,0-3.11,2.82v51.2a3,3,0,0,0,3.11,2.82h36.89a3,3,0,0,0,3.11-2.82v-51.2A3,3,0,0,0,384.67,319.55Z" transform="translate(-54.46 -88.46)" style="fill:url(#linear-gradient-23)"/><path d="M349.72,337.76V333.7a3.38,3.38,0,0,1,3.38-3.39h26.24a3.39,3.39,0,0,1,3.39,3.39v4.06" transform="translate(-54.46 -88.46)" style="fill:none;stroke:#000;stroke-linecap:round;stroke-linejoin:round;stroke-width:0.964966px;opacity:0.45;mix-blend-mode:overlay"/><polyline points="164.3 195.18 154.78 214.6 159.38 232.34 174.69 234.93 188.45 196.82 180.23 188.37" style="fill:url(#linear-gradient-24)"/><path d="M318.63,234.77v39.42s-.87,11-1.88,24.61c-.13,1.72-.26,3.48-.39,5.26s-.24,3.32-.36,5-.25,3.51-.37,5.26-.23,3.35-.35,5-.24,3.55-.35,5.26-.22,3.38-.32,5c-.12,1.84-.23,3.6-.32,5.26-.08,1.26-.14,2.46-.2,3.59-13,5.62-38.81,13.42-52.29,13.89-18.45.65-25.42-.93-27.2-4.75l-.07-.17c-1.15-2.75.27-8.62,2-14.65a2,2,0,0,0,.07-.23c.49-1.68,1-3.37,1.48-5,.25-.84.5-1.66.72-2.46a21.24,21.24,0,0,0,.53-2.5c.23-1.54.4-3.34.5-5.26.08-1.6.13-3.29.14-5s0-3.55-.05-5.27c0-.84,0-1.66-.07-2.46s-.06-1.73-.09-2.54c-.1-2.09-.2-3.92-.29-5.28-.1-1.6-.18-2.57-.18-2.57a13.46,13.46,0,0,0-5.18-7.94c-6.27-4.51-15.35-2.57-15.35-2.57s3.62-8.05,8.4-21.35,8.36-22.67,22-20.53c5.69.89,11.1,2,16.17,2.59,7.08.9,13.5,1,19.14-1.4,2.16-.9,4.26-1.82,6.4-2.71C298.32,237.13,306.24,234.45,318.63,234.77Z" transform="translate(-54.46 -88.46)" style="fill:url(#linear-gradient-25)"/><path d="M241.55,305.19l-1.7-.65c-.19-5.8-.56-10.39-.56-10.39a13.46,13.46,0,0,0-5.18-7.94c2.73-5.19,7.6-14.45,10.65-20.36C245.25,272.05,241.31,287.38,241.55,305.19Z" transform="translate(-54.46 -88.46)" style="fill:url(#linear-gradient-26)"/><path d="M273.21,255.14c-10.8-2-9.37-7.87-7.89-10.79,7.08.9,13.5,1,19.14-1.4,2.16-.9,4.26-1.82,6.4-2.71C291.43,247.27,286.07,257.53,273.21,255.14Z" transform="translate(-54.46 -88.46)" style="fill:#fff"/><path d="M318.63,255.13v19.06s-3.47,43.91-4.54,64.21a82.26,82.26,0,0,0-.23,10c.82,3.45-34.49,6.25-53.21,6.9-18.45.65-24.31-3.8-26-7.71l-.07-.17c-1.16-2.79.3-8.77,2.07-14.88,8.46.28,35.18-.56,39.34-22.09,4.94-25.63,27.33-28.81,32.63-64.19Z" transform="translate(-54.46 -88.46)" style="fill:url(#linear-gradient-27)"/><path d="M314.61,329.55c-.12,1.84-.23,3.6-.32,5.26l-77.76-2.09a2,2,0,0,0,.07-.23c.49-1.68,1-3.37,1.48-5Z" transform="translate(-54.46 -88.46)" style="fill:#fff;opacity:0.15;mix-blend-mode:overlay"/><path d="M315.28,319.3c-.12,1.79-.24,3.55-.35,5.26l-75.6-2c.23-1.54.4-3.34.5-5.26Z" transform="translate(-54.46 -88.46)" style="fill:#fff;opacity:0.15;mix-blend-mode:overlay"/><path d="M292.86,239.42c-3.63,28.94,11.35,89.39,22.42,86.1,2.53-2.13,1.54-6.75-3.39-15.12S297,255.05,298.27,237.48A4.79,4.79,0,0,0,292.86,239.42Z" transform="translate(-54.46 -88.46)" style="fill:url(#linear-gradient-28)"/><path d="M316,309.05c-.13,1.75-.25,3.51-.37,5.26l-75.66-2c0-1.76,0-3.55-.05-5.27Z" transform="translate(-54.46 -88.46)" style="fill:#fff;opacity:0.15;mix-blend-mode:overlay"/><path d="M316.75,298.8c-.13,1.72-.26,3.48-.39,5.26L239.76,302c-.1-2.09-.2-3.92-.29-5.28Z" transform="translate(-54.46 -88.46)" style="fill:#fff;opacity:0.15;mix-blend-mode:overlay"/><path d="M263,244c-6,19.82-19.45,82.72-25.42,85.27s-5.71-3.17,0-15.19,17.32-70.34,20.27-71.94S263.42,242.48,263,244Z" transform="translate(-54.46 -88.46)" style="fill:url(#linear-gradient-29)"/><path d="M294.81,291.69s12.32-50.59,19.71-55.77,30.88,5.51,4.11,61Z" transform="translate(-54.46 -88.46)" style="fill:url(#linear-gradient-30)"/><polygon points="193.04 242.16 160.2 253.66 140.16 236.08 139.58 236.34 129.4 240.84 128.31 239.84 122.58 234.6 104.6 179.82 121.27 194.03 139.34 188.37 139.58 188.62 156.34 205.61 185.57 197.65 188.5 211.81 189.56 216.96 191.68 232.34 193.04 242.16" style="fill:url(#linear-gradient-31)"/><polygon points="193.04 242.16 160.2 253.66 156.34 205.61 185.57 197.65 188.5 211.81 189.56 216.96 191.68 232.34 193.04 242.16" style="fill:url(#linear-gradient-32)"/><polygon points="139.58 188.62 139.58 236.34 129.4 240.84 128.31 239.84 121.27 194.03 139.34 188.37 139.58 188.62" style="fill:url(#linear-gradient-33)"/><path d="M246.15,320.8c-.48-.05-1-.14-1.52-.2-15.35-1.89-20.45-14.05-15.78-14.39s13.65-4.42,13.93-6.21l.18.27,1.06,5.15Z" transform="translate(-54.46 -88.46)" style="fill:url(#linear-gradient-34)"/><path d="M294.81,291.69l-8,26.11-36-10.51-8-7.29,1.23,5.42s-8,1.67-10.23,1.42-7.45-2-6.53,1.54,3,5.91,7,7.45,11.46,1.23,11.46,1.23l38.46,20.85a14.52,14.52,0,0,0,20.32-7.16l14.17-33.81S307.29,290.87,294.81,291.69Z" transform="translate(-54.46 -88.46)" style="fill:url(#linear-gradient-35)"/><path d="M168,295.53c3,3.51,12.61,3.34,13.47,6.18s0,7-3.74,7.92-9.73-.61-10.63-6S168,295.53,168,295.53Z" transform="translate(-54.46 -88.46)" style="fill:url(#linear-gradient-36)"/><path d="M253.68,200.31l-9.86-6.6a5.11,5.11,0,0,1,.14-8.58l4-2.47-2.05-2.75a4.87,4.87,0,0,1,4.13-7.78l33.79,1.56a11.75,11.75,0,0,1,11.1,13.4h0l2.92,1a6.19,6.19,0,0,1,3.73,8.13l-9.84,24.82a6,6,0,0,1-7.17,3.55l-6-1.7Z" transform="translate(-54.46 -88.46)" style="fill:url(#linear-gradient-37)"/><path d="M287.68,243.32s-4.37,8-11.74,8-8-2.83-8-2.83l-.73-6.2-.82-6.92,19.71-14.78.7,9.88Z" transform="translate(-54.46 -88.46)" style="fill:url(#linear-gradient-38)"/><path d="M286.78,230.44c-2.79,7.45-8.23,14.85-19.59,11.82l-.82-6.92,19.71-14.78Z" transform="translate(-54.46 -88.46)" style="fill:#f98875"/><path d="M251.06,187.59c8.46,10.1,30.05,15.19,39.25,10.51,0,0-.33,12.56.41,13.22s3.21-6.57,3.21-6.57,7.88-3.2,8.13,4.52-10.6,6.24-10.6,6.24-10.57,21.66-24,21.66-17.49-9.69-17.65-19S250.15,204.91,251.06,187.59Z" transform="translate(-54.46 -88.46)" style="fill:url(#linear-gradient-39)"/><path d="M262.49,209.23l-2.66,8.94a1.57,1.57,0,0,0,1.5,2h2.89" transform="translate(-54.46 -88.46)" style="fill:none;stroke:#f98875;stroke-linecap:round;stroke-linejoin:round;stroke-width:0.964966px"/><path d="M294.34,212.64s-.93-4,2.34-5.17,2.92,2.59,1.78,3.36" transform="translate(-54.46 -88.46)" style="fill:none;stroke:#f98875;stroke-linecap:round;stroke-linejoin:round;stroke-width:0.964966px"/><path d="M275.24,211.55a1.6,1.6,0,1,1-1.6-1.6A1.59,1.59,0,0,1,275.24,211.55Z" transform="translate(-54.46 -88.46)" style="fill:#391051"/><path d="M256.89,211.55a1.61,1.61,0,1,1-1.6-1.6A1.6,1.6,0,0,1,256.89,211.55Z" transform="translate(-54.46 -88.46)" style="fill:#391051"/><path d="M270,206a7.54,7.54,0,0,1,8.54.45" transform="translate(-54.46 -88.46)" style="fill:none;stroke:#391051;stroke-linecap:round;stroke-linejoin:round;stroke-width:0.964966px"/><path d="M250,206a7.54,7.54,0,0,1,8.54.45" transform="translate(-54.46 -88.46)" style="fill:none;stroke:#391051;stroke-linecap:round;stroke-linejoin:round;stroke-width:0.964966px"/><path d="M271.77,223.6a4.43,4.43,0,1,1-8.81,1Z" transform="translate(-54.46 -88.46)" style="fill:#fff"/><path d="M162.58,343.18a18.79,18.79,0,0,0,13.3,18L273.5,391l7.75,2.37,8.39-26.12-7.05-2.89L188.5,325.79a18.79,18.79,0,0,0-25.92,17.39Z" transform="translate(-54.46 -88.46)" style="fill:url(#linear-gradient-40)"/><polygon points="219.03 302.53 226.79 304.9 235.18 278.78 228.13 275.89 219.03 302.53" style="fill:url(#linear-gradient-41)"/><path d="M289.65,367.24l13.79-5.56a7.41,7.41,0,0,1,7.55,1.24l41.75,35.71a5,5,0,0,1-4.26,8.68l-67.22-13.95Z" transform="translate(-54.46 -88.46)" style="fill:url(#linear-gradient-42)"/><path d="M348.3,343.18a18.8,18.8,0,0,1-13.3,18L237.38,391l-7.76,2.37-8.39-26.12,7.05-2.89,94.09-38.56a18.8,18.8,0,0,1,25.11,11.9A19.08,19.08,0,0,1,348.3,343.18Z" transform="translate(-54.46 -88.46)" style="fill:url(#linear-gradient-43)"/><polygon points="182.92 302.53 175.16 304.9 166.77 278.78 173.82 275.89 182.92 302.53" style="fill:url(#linear-gradient-44)"/><path d="M221.23,367.24l-13.8-5.56a7.41,7.41,0,0,0-7.55,1.24l-41.74,35.71a5,5,0,0,0,4.26,8.68l67.22-13.95Z" transform="translate(-54.46 -88.46)" style="fill:url(#linear-gradient-45)"/><path d="M182.24,243.21a10.53,10.53,0,0,0-8.3,12.36c0,.18.08.36.12.54,2.06,8.91,10.17,9.7,13,13.88a.48.48,0,0,0,.87-.17c1-4.94,8.24-8.74,6.77-17.76a5.25,5.25,0,0,0-.09-.55A10.52,10.52,0,0,0,182.24,243.21ZM185,257.35a3.88,3.88,0,0,1-4.55-3.06,4,4,0,0,1-.07-1,3.88,3.88,0,1,1,4.62,4Z" transform="translate(-54.46 -88.46)" style="fill:url(#linear-gradient-46)"/><text transform="translate(153.91 46.11)" style="font-size:16.734960556030273px;fill:#0292ab;font-family:Poppins-Bold, Poppins;font-weight:700">LAMPUNG</text><text transform="translate(157.55 26.74)" style="font-size:16.734960556030273px;fill:#004f51;font-family:Poppins-Medium, Poppins">TRAVELIN</text><path d="M188.15,249.46c21.22-64.45,159.21-98.24,203.51-26.22" transform="translate(-54.46 -88.46)" style="fill:none;stroke:#bbd4f2;stroke-linecap:round;stroke-linejoin:round;stroke-width:0.964966px;stroke-dasharray:2.89490008354187"/><path d="M107.16,223.24l.81-1.19" transform="translate(-54.46 -88.46)" style="fill:none;stroke:#bbd4f2;stroke-linecap:round;stroke-linejoin:round;stroke-width:0.964966px"/><path d="M109.65,219.75c29.57-38.9,75-10.68,75.31,25.24" transform="translate(-54.46 -88.46)" style="fill:none;stroke:#bbd4f2;stroke-linecap:round;stroke-linejoin:round;stroke-width:0.964966px;stroke-dasharray:2.8456099033355713,2.8456099033355713"/><path d="M185,246.42l-.06,1.45" transform="translate(-54.46 -88.46)" style="fill:none;stroke:#bbd4f2;stroke-linecap:round;stroke-linejoin:round;stroke-width:0.964966px"/><path d="M146.63,138.59c42.46,4,41.52,107.62,41.52,107.62s9-104.09,146.07-101.81" transform="translate(-54.46 -88.46)" style="fill:none;stroke:#bbd4f2;stroke-linecap:round;stroke-linejoin:round;stroke-width:0.964966px;stroke-dasharray:2.89490008354187"/><path d="M427.91,223.3c0,.36,0,.71,0,1.07,0,.81-.08,1.6-.17,2.39a30.6,30.6,0,0,1-2.14,8.31c-.29.71-.61,1.41-1,2.09a30.79,30.79,0,0,1-11.46,12.43c-.76.47-1.54.9-2.34,1.3a30.17,30.17,0,0,1-7.58,2.59h0c-.47.1-.94.18-1.41.25a31.06,31.06,0,0,1-9.43,0c-.47-.07-.94-.15-1.41-.25a30.73,30.73,0,0,1-7.58-2.6c-.8-.4-1.58-.83-2.34-1.3a30.82,30.82,0,0,1-12.58-14.93c-.22-.52-.41-1-.59-1.6s-.38-1.21-.55-1.83c-.07-.26-.13-.52-.19-.78a30.16,30.16,0,0,1-.85-7.15,30.8,30.8,0,1,1,61.6,0Z" transform="translate(-54.46 -88.46)" style="fill:url(#linear-gradient-47)"/><path d="M427.89,224.37c0,.81-.08,1.6-.17,2.39a30.6,30.6,0,0,1-2.14,8.31c-.29.71-.61,1.41-1,2.09a30.79,30.79,0,0,1-11.46,12.43c-.76.47-1.54.9-2.34,1.3a30.17,30.17,0,0,1-7.58,2.59h0c-.47.1-.94.18-1.41.25a31.06,31.06,0,0,1-9.43,0c-.47-.07-.94-.15-1.41-.25a30.73,30.73,0,0,1-7.58-2.6c-.8-.4-1.58-.83-2.34-1.3a30.82,30.82,0,0,1-12.58-14.93c-.22-.52-.41-1-.59-1.6s-.38-1.21-.55-1.83c-.07-.26-.13-.52-.19-.78h8.17v7.47h4.35v7.14h5.5V230.94h8.71v19h5.93v-7.44h7.73V230.12h4v6.4h7.31V224.37Z" transform="translate(-54.46 -88.46)" style="fill:url(#linear-gradient-48)"/><rect x="334.67" y="143.95" width="17" height="3.44" style="fill:#02419c"/><path d="M389.07,215.1h-4.68l1.26-9.86a1.1,1.1,0,0,1,1.08-1h0a1.1,1.1,0,0,1,1.09,1Z" transform="translate(-54.46 -88.46)" style="fill:url(#linear-gradient-49)"/><rect x="329.07" y="120.88" width="6.41" height="12.37" style="fill:url(#linear-gradient-50)"/><rect x="328.33" y="123.59" width="7.88" height="16.97" style="fill:url(#linear-gradient-51)"/><rect x="327.35" y="129.9" width="9.85" height="19.51" style="fill:url(#linear-gradient-52)"/><path d="M392.4,229.82v23.92c-.47-.07-.94-.15-1.41-.25a30.73,30.73,0,0,1-7.58-2.6c-.8-.4-1.58-.83-2.34-1.3V229.82Z" transform="translate(-54.46 -88.46)" style="fill:url(#linear-gradient-53)"/><path d="M409.83,215.1h-4.68l1.26-9.86a1.09,1.09,0,0,1,1.08-1h0a1.09,1.09,0,0,1,1.08,1Z" transform="translate(-54.46 -88.46)" style="fill:url(#linear-gradient-54)"/><rect x="349.83" y="120.88" width="6.41" height="12.37" style="fill:url(#linear-gradient-55)"/><rect x="349.09" y="123.59" width="7.88" height="16.97" style="fill:url(#linear-gradient-56)"/><rect x="348.1" y="129.9" width="9.85" height="19.51" style="fill:url(#linear-gradient-57)"/><path d="M413.16,229.82v19.77c-.76.47-1.54.9-2.34,1.3a30.17,30.17,0,0,1-7.58,2.59h0c-.47.1-.94.18-1.41.25V229.82Z" transform="translate(-54.46 -88.46)" style="fill:url(#linear-gradient-58)"/><path d="M432.52,186.36a10.53,10.53,0,0,0-13.93,5.24c-.08.17-.15.34-.22.51-3.49,8.45,2.65,13.8,2.52,18.84a.47.47,0,0,0,.8.37c3.71-3.42,11.78-2.34,15.83-10.53l.24-.5A10.52,10.52,0,0,0,432.52,186.36Zm-5.95,13.12a3.89,3.89,0,0,1-1.93-5.14,3.67,3.67,0,0,1,.5-.81,3.88,3.88,0,1,1,1.43,5.95Z" transform="translate(-54.46 -88.46)" style="fill:url(#linear-gradient-59)"/><path d="M179.41,135.24c0,.36,0,.72,0,1.07q0,1.22-.18,2.4a30.62,30.62,0,0,1-2.14,8.3c-.29.71-.61,1.41-1,2.09a30.77,30.77,0,0,1-21.38,16.33h0A30.78,30.78,0,0,1,120,146.6c-.21-.52-.41-1-.59-1.6s-.38-1.21-.55-1.83c-.06-.26-.13-.52-.19-.78a30.8,30.8,0,1,1,60.76-7.15Z" transform="translate(-54.46 -88.46)" style="fill:url(#linear-gradient-60)"/><path d="M179.39,136.31q0,1.22-.18,2.4a30.62,30.62,0,0,1-2.14,8.3c-.29.71-.61,1.41-1,2.09a30.77,30.77,0,0,1-21.38,16.33h0A30.78,30.78,0,0,1,120,146.6c-.21-.52-.41-1-.59-1.6s-.38-1.21-.55-1.83c-.06-.26-.13-.52-.19-.78h8.17v7.47h4.36V157h5.5V142.88h8.7v19h5.93v-7.44H159V142.06h4v6.4h7.31V136.31Z" transform="translate(-54.46 -88.46)" style="fill:url(#linear-gradient-61)"/><path d="M159,154.41c-.41-1.09-.83-2.23-1.26-3.41l-.57-1.56c-1.11-3.09-2.24-6.39-3.31-9.73-.11-.38-.23-.75-.35-1.12-1.41-4.53-2.69-9.1-3.59-13.29-.16-.78-.31-1.54-.45-2.29h-1.78c-.14.75-.29,1.51-.46,2.29-.9,4.19-2.17,8.76-3.59,13.29-.11.37-.23.74-.35,1.12-.34,1.06-.68,2.12-1,3.17-.75,2.25-1.52,4.45-2.28,6.56-.19.52-.38,1-.56,1.56-1.74,4.77-3.38,8.94-4.55,11.83a30.66,30.66,0,0,0,7.59,2.6c.48-2,1.38-5.85,2.4-10.42a1.42,1.42,0,0,1,.12-.57,2.15,2.15,0,0,1,.37-.5c1.48-1.43,5.83-1.52,6.81.47a2.07,2.07,0,0,1,.2.88c1,4.44,1.86,8.12,2.34,10.14a30.59,30.59,0,0,0,7.58-2.6C161.43,160.65,160.28,157.75,159,154.41Zm-10.74-15.82c.11-.59.22-1.16.32-1.74.1.58.21,1.16.31,1.74l.21,1.12c.62,3.23,1.3,6.56,2,9.73.07.32.13.63.2.95l-3.25-.17-2.14.11c.06-.3.12-.59.19-.89.67-3.17,1.36-6.5,2-9.73Z" transform="translate(-54.46 -88.46)" style="fill:url(#linear-gradient-62)"/><path d="M144.89,155a1.2,1.2,0,0,1,.13-.57C145,154.64,144.93,154.83,144.89,155Z" transform="translate(-54.46 -88.46)" style="fill:url(#linear-gradient-63)"/><path d="M152.38,155.29c-.06-.29-.13-.58-.19-.88A2.07,2.07,0,0,1,152.38,155.29Z" transform="translate(-54.46 -88.46)" style="fill:url(#linear-gradient-64)"/><path d="M154.65,139.7H142.56a.56.56,0,0,1-.56-.55h0a.56.56,0,0,1,.56-.56h12.09a.56.56,0,0,1,.56.56h0A.56.56,0,0,1,154.65,139.7Z" transform="translate(-54.46 -88.46)" style="fill:url(#linear-gradient-65)"/><path d="M158.65,151H138.56a.78.78,0,0,1-.78-.78h0a.78.78,0,0,1,.78-.78h20.09a.78.78,0,0,1,.79.78h0A.78.78,0,0,1,158.65,151Z" transform="translate(-54.46 -88.46)" style="fill:url(#linear-gradient-66)"/><path d="M147.6,122.79l-.68-3.73a.45.45,0,0,1,0-.28l1.42-3.29a.48.48,0,0,1,.9,0l1,2.91a.71.71,0,0,1,0,.25l-.73,4.1Z" transform="translate(-54.46 -88.46)" style="fill:url(#linear-gradient-67)"/><path d="M150,125.3H147.2c-.3,0-.57-.65-.57-1.44h0c0-.8.27-1.44.6-1.44H150c.33,0,.6.64.6,1.44h0C150.58,124.65,150.31,125.3,150,125.3Z" transform="translate(-54.46 -88.46)" style="fill:url(#linear-gradient-68)"/><path d="M124.52,88.77a10.53,10.53,0,0,0-7.68,12.75l.15.54c2.5,8.79,10.63,9.18,13.66,13.22a.48.48,0,0,0,.86-.22c.78-5,7.78-9.13,5.88-18.07l-.12-.54A10.53,10.53,0,0,0,124.52,88.77Zm3.47,14a3.89,3.89,0,0,1-4.7-2.83,3.88,3.88,0,0,1,7.19-2.77,4.4,4.4,0,0,1,.34.9A3.89,3.89,0,0,1,128,102.75Z" transform="translate(-54.46 -88.46)" style="fill:url(#linear-gradient-69)"/><path d="M377.84,134.8a28.46,28.46,0,0,1-38.69,26.56,28.61,28.61,0,0,1-3.79-1.79l-.5-.3c-.32-.18-.62-.37-.92-.57a28.46,28.46,0,1,1,43.9-23.9Z" transform="translate(-54.46 -88.46)" style="fill:url(#linear-gradient-70)"/><path d="M376.29,144.09a28.47,28.47,0,0,1-40.93,15.48l-.5-.3c-.32-.18-.62-.37-.92-.57a28.48,28.48,0,0,1-10.37-11.9,12.85,12.85,0,0,1,3.79,2.85c-.06-.11-.42-.87,2.31-1.67,3-.87,6,5,6,5s.56-1.48,3.19-1.32,5.1,5.26,5.1,5.26,1.15-3.29,2.51-3.9c.5,1.44-.55,3.85-.65,4.09a3.36,3.36,0,0,1,2.33-1.5,3.52,3.52,0,0,1-.69,2.29,9.64,9.64,0,0,1,5-1.23,3.28,3.28,0,0,1,2.84,1.73s2.18-7.14,6.59-7.15,4.9,1.11,4.9,1.11S368.56,144.45,376.29,144.09Z" transform="translate(-54.46 -88.46)" style="fill:url(#linear-gradient-71)"/><rect x="280.4" y="43.87" width="3.37" height="27.24" style="fill:url(#linear-gradient-72)"/><rect x="279.47" y="43.87" width="5.21" height="4.49" style="fill:url(#linear-gradient-73)"/><path d="M339.15,158v3.33a28.61,28.61,0,0,1-3.79-1.79h-.5v-.3c-.32-.18-.62-.37-.92-.57V158Z" transform="translate(-54.46 -88.46)" style="fill:url(#linear-gradient-74)"/><rect x="279.76" y="55.94" width="4.64" height="13.63" style="fill:url(#linear-gradient-75)"/><rect x="304.01" y="43.87" width="3.37" height="27.24" style="fill:url(#linear-gradient-76)"/><rect x="303.09" y="43.87" width="5.21" height="4.49" style="fill:url(#linear-gradient-77)"/><path d="M362.77,158v1.89a28.5,28.5,0,0,1-5.22,2.15v-4Z" transform="translate(-54.46 -88.46)" style="fill:url(#linear-gradient-78)"/><rect x="303.38" y="55.94" width="4.64" height="13.63" style="fill:url(#linear-gradient-79)"/><path d="M370.77,130.05a51,51,0,0,1-44.84,0l1.72-3.52a47.1,47.1,0,0,0,41.4,0C369.62,127.7,370.2,128.87,370.77,130.05Z" transform="translate(-54.46 -88.46)" style="fill:url(#linear-gradient-80)"/><path d="M385.66,104.61v7.47a3.57,3.57,0,0,1-3.57,3.58h-11.3l-3.61,3.61v-3.61h-4.39a3.58,3.58,0,0,1-3.58-3.58v-7.47a3.57,3.57,0,0,1,3.58-3.57h19.3A3.57,3.57,0,0,1,385.66,104.61Z" transform="translate(-54.46 -88.46)" style="fill:url(#linear-gradient-81)"/><path d="M375.66,105.89a1.71,1.71,0,0,1,.5,1.22,1.67,1.67,0,0,1-.5,1.22L372,112l-3.66-3.66a1.73,1.73,0,0,1,0-2.44,1.75,1.75,0,0,1,1.22-.5,1.72,1.72,0,0,1,1.22.5l1.22,1.22,1.22-1.22A1.73,1.73,0,0,1,375.66,105.89Z" transform="translate(-54.46 -88.46)" style="fill:#fff"/><path d="M137.33,234.8a31.74,31.74,0,0,1-.2,3.67,32.3,32.3,0,0,1-2.27,8.79c-.31.75-.64,1.48-1,2.2a32.6,32.6,0,0,1-59.4-2.64c-.23-.55-.43-1.12-.62-1.69s-.41-1.28-.58-1.93a32.58,32.58,0,1,1,64.07-8.4Z" transform="translate(-54.46 -88.46)" style="fill:url(#linear-gradient-82)"/><path d="M137.13,238.47a32.3,32.3,0,0,1-2.27,8.79c-.31.75-.64,1.48-1,2.2L115,249.27l-14.83-.14,3.55-3.55.18-.18,21-21Z" transform="translate(-54.46 -88.46)" style="fill:url(#linear-gradient-83)"/><polygon points="70.43 135.97 60.57 160.81 45.73 160.67 70.43 135.97" style="fill:url(#linear-gradient-84)"/><path d="M105.1,247.13l-2.87,0-19.59-.2-8.18-.08c-.23-.55-.43-1.12-.62-1.69l2.73-2.73,13-13,13.89,15.93.25.29Z" transform="translate(-54.46 -88.46)" style="fill:url(#linear-gradient-85)"/><path d="M89.61,229.36l-4.93,12.42h0l-2,5.12-8.18-.08c-.23-.55-.43-1.12-.62-1.69l2.73-2.73Z" transform="translate(-54.46 -88.46)" style="fill:url(#linear-gradient-86)"/><path d="M134.86,247.26c-.31.75-.64,1.48-1,2.2a32.6,32.6,0,0,1-59.4-2.64c-.23-.55-.43-1.12-.62-1.69s-.41-1.28-.58-1.93c1.12-.33,2.22-.59,3.31-.8a36.26,36.26,0,0,1,7.73-.63h.38c6.48.21,12.5,2,18.82,3.51l.43.11c2.79.68,5.64,1.3,8.61,1.73,1.07.15,2.15.27,3.2.35C122.69,248,129.28,247.27,134.86,247.26Z" transform="translate(-54.46 -88.46)" style="fill:url(#linear-gradient-87)"/><path d="M114,266a32.63,32.63,0,0,1-39.57-19.22c-.23-.55-.43-1.12-.62-1.69s-.41-1.28-.58-1.93c1.12-.33,2.22-.59,3.31-.8a36.26,36.26,0,0,1,7.73-.63h0c11.79.66,16.38,5.17,11.46,11.08C91.37,258.16,109.07,259.56,114,266Z" transform="translate(-54.46 -88.46)" style="fill:url(#linear-gradient-88)"/><path d="M105.26,220.7a7.15,7.15,0,1,1-7.14-7.15A7.14,7.14,0,0,1,105.26,220.7Z" transform="translate(-54.46 -88.46)" style="fill:#fff;opacity:0.25;mix-blend-mode:overlay"/><circle cx="43.66" cy="132.24" r="4.84" style="fill:#fff;opacity:0.45;mix-blend-mode:overlay"/><path d="M100.66,220.7a2.55,2.55,0,1,1-2.54-2.55A2.54,2.54,0,0,1,100.66,220.7Z" transform="translate(-54.46 -88.46)" style="fill:#f3ff70"/><path d="M84.9,191.52V199a3.57,3.57,0,0,0,3.57,3.57H99.76l3.61,3.61v-3.61h4.4a3.57,3.57,0,0,0,3.57-3.57v-7.48a3.57,3.57,0,0,0-3.57-3.57H88.47A3.57,3.57,0,0,0,84.9,191.52Z" transform="translate(-54.46 -88.46)" style="fill:url(#linear-gradient-89)"/><path d="M94.89,192.81a1.72,1.72,0,0,0-.5,1.22,1.67,1.67,0,0,0,.5,1.22l3.66,3.66,3.66-3.66a1.73,1.73,0,1,0-2.44-2.44L98.55,194l-1.22-1.22A1.71,1.71,0,0,0,94.89,192.81Z" transform="translate(-54.46 -88.46)" style="fill:#fff"/></g></g></svg>